<?xml version="1.0" encoding="UTF-8" standalone="no"?>
<!DOCTYPE svg PUBLIC "-//W3C//DTD SVG 1.1//EN"
 "http://www.w3.org/Graphics/SVG/1.1/DTD/svg11.dtd">
<!-- Generated by graphviz version 2.40.1 (20161225.0304)
 -->
<!-- Title: dependencies Pages: 1 -->
<svg width="504pt" height="284pt"
 viewBox="0.00 0.00 504.00 284.00" xmlns="http://www.w3.org/2000/svg" xmlns:xlink="http://www.w3.org/1999/xlink">
<g id="graph0" class="graph" transform="scale(1 1) rotate(0) translate(4 280)">
<title>dependencies</title>
<polygon fill="#ffffff" stroke="transparent" points="-4,4 -4,-280 500,-280 500,4 -4,4"/>
<text text-anchor="start" x="227.0091" y="-42.4" font-family="sans-serif" font-weight="bold" font-size="14.00" fill="#000000">Legend</text>
<polygon fill="#ffffb3" stroke="transparent" points="14,-10 14,-30 34,-30 34,-10 14,-10"/>
<text text-anchor="start" x="37.629" y="-15.4" font-family="sans-serif" font-size="14.00" fill="#000000"> &#160;Declarations</text>
<polygon fill="#8dd3c7" stroke="transparent" points="127,-10 127,-30 147,-30 147,-10 127,-10"/>
<text text-anchor="start" x="150.7251" y="-15.4" font-family="sans-serif" font-size="14.00" fill="#000000"> &#160;Module</text>
<polygon fill="#80b1d3" stroke="transparent" points="213,-10 213,-30 233,-30 233,-10 213,-10"/>
<text text-anchor="start" x="236.7812" y="-15.4" font-family="sans-serif" font-size="14.00" fill="#000000"> &#160;Bootstrap</text>
<polygon fill="#fdb462" stroke="transparent" points="310,-10 310,-30 330,-30 330,-10 310,-10"/>
<text text-anchor="start" x="333.6732" y="-15.4" font-family="sans-serif" font-size="14.00" fill="#000000"> &#160;Providers</text>
<polygon fill="#fb8072" stroke="transparent" points="406,-10 406,-30 426,-30 426,-10 406,-10"/>
<text text-anchor="start" x="429.7258" y="-15.4" font-family="sans-serif" font-size="14.00" fill="#000000"> &#160;Exports</text>
<g id="clust1" class="cluster">
<title>cluster_TemplatesModule</title>
<polygon fill="none" stroke="#000000" stroke-dasharray="1,5" points="29,-70 29,-268 467,-268 467,-70 29,-70"/>
</g>
<g id="clust2" class="cluster">
<title>cluster_TemplatesModule_declarations</title>
<polygon fill="none" stroke="#000000" points="40,-78 40,-130 456,-130 456,-78 40,-78"/>
</g>
<g id="clust6" class="cluster">
<title>cluster_TemplatesModule_exports</title>
<polygon fill="none" stroke="#000000" points="37,-208 37,-260 459,-260 459,-208 37,-208"/>
</g>
<!-- TemplateContainerComponent -->
<g id="node1" class="node">
<title>TemplateContainerComponent</title>
<polygon fill="#ffffb3" stroke="#000000" points="447.9086,-122 258.0914,-122 258.0914,-86 447.9086,-86 447.9086,-122"/>
<text text-anchor="middle" x="353" y="-99.8" font-family="Times,serif" font-size="14.00" fill="#000000">TemplateContainerComponent</text>
</g>
<!-- TemplatesModule -->
<g id="node3" class="node">
<title>TemplatesModule</title>
<polygon fill="#8dd3c7" stroke="#000000" points="203.8627,-187 200.8627,-191 179.8627,-191 176.8627,-187 86.1373,-187 86.1373,-151 203.8627,-151 203.8627,-187"/>
<text text-anchor="middle" x="145" y="-164.8" font-family="Times,serif" font-size="14.00" fill="#000000">TemplatesModule</text>
</g>
<!-- TemplateContainerComponent&#45;&gt;TemplatesModule -->
<g id="edge1" class="edge">
<title>TemplateContainerComponent&#45;&gt;TemplatesModule</title>
<path fill="none" stroke="#000000" d="M384.6514,-122.0225C384.6514,-139.3734 384.6514,-163 384.6514,-163 384.6514,-163 213.9323,-163 213.9323,-163"/>
<polygon fill="#000000" stroke="#000000" points="213.9323,-159.5001 203.9323,-163 213.9322,-166.5001 213.9323,-159.5001"/>
</g>
<!-- TemplateFullWidthComponent -->
<g id="node2" class="node">
<title>TemplateFullWidthComponent</title>
<polygon fill="#ffffb3" stroke="#000000" points="239.7603,-122 48.2397,-122 48.2397,-86 239.7603,-86 239.7603,-122"/>
<text text-anchor="middle" x="144" y="-99.8" font-family="Times,serif" font-size="14.00" fill="#000000">TemplateFullWidthComponent</text>
</g>
<!-- TemplateFullWidthComponent&#45;&gt;TemplatesModule -->
<g id="edge2" class="edge">
<title>TemplateFullWidthComponent&#45;&gt;TemplatesModule</title>
<path fill="none" stroke="#000000" d="M145,-122.1061C145,-122.1061 145,-140.991 145,-140.991"/>
<polygon fill="#000000" stroke="#000000" points="141.5001,-140.9909 145,-150.991 148.5001,-140.991 141.5001,-140.9909"/>
</g>
<!-- TemplateContainerComponent  -->
<g id="node4" class="node">
<title>TemplateContainerComponent </title>
<polygon fill="#fb8072" stroke="#000000" points="451.4082,-252 258.5918,-252 258.5918,-216 451.4082,-216 451.4082,-252"/>
<text text-anchor="middle" x="355" y="-229.8" font-family="Times,serif" font-size="14.00" fill="#000000">TemplateContainerComponent </text>
</g>
<!-- TemplatesModule&#45;&gt;TemplateContainerComponent  -->
<g id="edge3" class="edge">
<title>TemplatesModule&#45;&gt;TemplateContainerComponent </title>
<path fill="none" stroke="#000000" stroke-dasharray="5,2" d="M204.2961,-175C255.5998,-175 321.5986,-175 321.5986,-175 321.5986,-175 321.5986,-205.9775 321.5986,-205.9775"/>
<polygon fill="#000000" stroke="#000000" points="318.0987,-205.9774 321.5986,-215.9775 325.0987,-205.9775 318.0987,-205.9774"/>
</g>
<!-- TemplateFullWidthComponent  -->
<g id="node5" class="node">
<title>TemplateFullWidthComponent </title>
<polygon fill="#fb8072" stroke="#000000" points="240.7604,-252 45.2396,-252 45.2396,-216 240.7604,-216 240.7604,-252"/>
<text text-anchor="middle" x="143" y="-229.8" font-family="Times,serif" font-size="14.00" fill="#000000">TemplateFullWidthComponent </text>
</g>
<!-- TemplatesModule&#45;&gt;TemplateFullWidthComponent  -->
<g id="edge4" class="edge">
<title>TemplatesModule&#45;&gt;TemplateFullWidthComponent </title>
<path fill="none" stroke="#000000" stroke-dasharray="5,2" d="M145,-187.1061C145,-187.1061 145,-205.991 145,-205.991"/>
<polygon fill="#000000" stroke="#000000" points="141.5001,-205.9909 145,-215.991 148.5001,-205.991 141.5001,-205.9909"/>
</g>
</g>
</svg>
