<?xml version="1.0" encoding="UTF-8" standalone="no"?>
<!DOCTYPE svg PUBLIC "-//W3C//DTD SVG 1.1//EN"
 "http://www.w3.org/Graphics/SVG/1.1/DTD/svg11.dtd">
<!-- Generated by graphviz version 2.40.1 (20161225.0304)
 -->
<!-- Title: dependencies Pages: 1 -->
<svg width="4980pt" height="290pt"
 viewBox="0.00 0.00 4980.00 290.00" xmlns="http://www.w3.org/2000/svg" xmlns:xlink="http://www.w3.org/1999/xlink">
<g id="graph0" class="graph" transform="scale(1 1) rotate(0) translate(4 286)">
<title>dependencies</title>
<polygon fill="#ffffff" stroke="transparent" points="-4,4 -4,-286 4976,-286 4976,4 -4,4"/>
<text text-anchor="start" x="2465.0091" y="-42.4" font-family="sans-serif" font-weight="bold" font-size="14.00" fill="#000000">Legend</text>
<polygon fill="#ffffb3" stroke="transparent" points="2252,-10 2252,-30 2272,-30 2272,-10 2252,-10"/>
<text text-anchor="start" x="2275.629" y="-15.4" font-family="sans-serif" font-size="14.00" fill="#000000"> &#160;Declarations</text>
<polygon fill="#8dd3c7" stroke="transparent" points="2365,-10 2365,-30 2385,-30 2385,-10 2365,-10"/>
<text text-anchor="start" x="2388.7251" y="-15.4" font-family="sans-serif" font-size="14.00" fill="#000000"> &#160;Module</text>
<polygon fill="#80b1d3" stroke="transparent" points="2451,-10 2451,-30 2471,-30 2471,-10 2451,-10"/>
<text text-anchor="start" x="2474.7812" y="-15.4" font-family="sans-serif" font-size="14.00" fill="#000000"> &#160;Bootstrap</text>
<polygon fill="#fdb462" stroke="transparent" points="2548,-10 2548,-30 2568,-30 2568,-10 2548,-10"/>
<text text-anchor="start" x="2571.6732" y="-15.4" font-family="sans-serif" font-size="14.00" fill="#000000"> &#160;Providers</text>
<polygon fill="#fb8072" stroke="transparent" points="2644,-10 2644,-30 2664,-30 2664,-10 2644,-10"/>
<text text-anchor="start" x="2667.7258" y="-15.4" font-family="sans-serif" font-size="14.00" fill="#000000"> &#160;Exports</text>
<g id="clust1" class="cluster">
<title>cluster_AppModule</title>
<polygon fill="none" stroke="#000000" stroke-dasharray="1,5" points="8,-70 8,-274 403,-274 403,-70 8,-70"/>
</g>
<g id="clust2" class="cluster">
<title>cluster_AppModule_declarations</title>
<polygon fill="none" stroke="#000000" points="16,-78 16,-130 138,-130 138,-78 16,-78"/>
</g>
<g id="clust4" class="cluster">
<title>cluster_AppModule_imports</title>
<polygon fill="none" stroke="#000000" points="146,-78 146,-130 395,-130 395,-78 146,-78"/>
</g>
<g id="clust6" class="cluster">
<title>cluster_AppModule_bootstrap</title>
<polygon fill="none" stroke="#000000" points="156,-214 156,-266 280,-266 280,-214 156,-214"/>
</g>
<g id="clust14" class="cluster">
<title>cluster_ClientsModule</title>
<polygon fill="none" stroke="#000000" stroke-dasharray="1,5" points="1813,-70 1813,-198 2551,-198 2551,-70 1813,-70"/>
</g>
<g id="clust15" class="cluster">
<title>cluster_ClientsModule_declarations</title>
<polygon fill="none" stroke="#000000" points="1989,-78 1989,-130 2543,-130 2543,-78 1989,-78"/>
</g>
<g id="clust19" class="cluster">
<title>cluster_ClientsModule_imports</title>
<polygon fill="none" stroke="#000000" points="1821,-78 1821,-130 1981,-130 1981,-78 1821,-78"/>
</g>
<g id="clust29" class="cluster">
<title>cluster_CoreModule</title>
<polygon fill="none" stroke="#000000" stroke-dasharray="1,5" points="411,-138 411,-206 1805,-206 1805,-138 411,-138"/>
</g>
<g id="clust30" class="cluster">
<title>cluster_CoreModule_declarations</title>
<polygon fill="none" stroke="#000000" points="1401,-146 1401,-198 1797,-198 1797,-146 1401,-146"/>
</g>
<g id="clust35" class="cluster">
<title>cluster_CoreModule_exports</title>
<polygon fill="none" stroke="#000000" points="419,-146 419,-198 1393,-198 1393,-146 419,-146"/>
</g>
<g id="clust38" class="cluster">
<title>cluster_IconsModule</title>
<polygon fill="none" stroke="#000000" stroke-dasharray="1,5" points="2559,-70 2559,-274 3200,-274 3200,-70 2559,-70"/>
</g>
<g id="clust39" class="cluster">
<title>cluster_IconsModule_declarations</title>
<polygon fill="none" stroke="#000000" points="2576,-78 2576,-130 3186,-130 3186,-78 2576,-78"/>
</g>
<g id="clust45" class="cluster">
<title>cluster_IconsModule_exports</title>
<polygon fill="none" stroke="#000000" points="2567,-214 2567,-266 3192,-266 3192,-214 2567,-214"/>
</g>
<g id="clust48" class="cluster">
<title>cluster_LoginModule</title>
<polygon fill="none" stroke="#000000" stroke-dasharray="1,5" points="3208,-70 3208,-198 3516,-198 3516,-70 3208,-70"/>
</g>
<g id="clust49" class="cluster">
<title>cluster_LoginModule_declarations</title>
<polygon fill="none" stroke="#000000" points="3378,-78 3378,-130 3508,-130 3508,-78 3378,-78"/>
</g>
<g id="clust51" class="cluster">
<title>cluster_LoginModule_imports</title>
<polygon fill="none" stroke="#000000" points="3216,-78 3216,-130 3370,-130 3370,-78 3216,-78"/>
</g>
<g id="clust61" class="cluster">
<title>cluster_OrdersModule</title>
<polygon fill="none" stroke="#000000" stroke-dasharray="1,5" points="3524,-70 3524,-198 4256,-198 4256,-70 3524,-70"/>
</g>
<g id="clust62" class="cluster">
<title>cluster_OrdersModule_declarations</title>
<polygon fill="none" stroke="#000000" points="3698,-78 3698,-130 4248,-130 4248,-78 3698,-78"/>
</g>
<g id="clust66" class="cluster">
<title>cluster_OrdersModule_imports</title>
<polygon fill="none" stroke="#000000" points="3532,-78 3532,-130 3690,-130 3690,-78 3532,-78"/>
</g>
<g id="clust82" class="cluster">
<title>cluster_TemplatesModule</title>
<polygon fill="none" stroke="#000000" stroke-dasharray="1,5" points="4264,-70 4264,-274 4702,-274 4702,-70 4264,-70"/>
</g>
<g id="clust83" class="cluster">
<title>cluster_TemplatesModule_declarations</title>
<polygon fill="none" stroke="#000000" points="4275,-78 4275,-130 4691,-130 4691,-78 4275,-78"/>
</g>
<g id="clust87" class="cluster">
<title>cluster_TemplatesModule_exports</title>
<polygon fill="none" stroke="#000000" points="4272,-214 4272,-266 4694,-266 4694,-214 4272,-214"/>
</g>
<g id="clust96" class="cluster">
<title>cluster_UiModule</title>
<polygon fill="none" stroke="#000000" stroke-dasharray="1,5" points="4710,-70 4710,-274 4964,-274 4964,-70 4710,-70"/>
</g>
<g id="clust97" class="cluster">
<title>cluster_UiModule_declarations</title>
<polygon fill="none" stroke="#000000" points="4721,-78 4721,-130 4953,-130 4953,-78 4721,-78"/>
</g>
<g id="clust101" class="cluster">
<title>cluster_UiModule_exports</title>
<polygon fill="none" stroke="#000000" points="4718,-214 4718,-266 4956,-266 4956,-214 4718,-214"/>
</g>
<!-- AppComponent -->
<g id="node1" class="node">
<title>AppComponent</title>
<polygon fill="#ffffb3" stroke="#000000" points="129.9399,-122 24.0601,-122 24.0601,-86 129.9399,-86 129.9399,-122"/>
<text text-anchor="middle" x="77" y="-99.8" font-family="Times,serif" font-size="14.00" fill="#000000">AppComponent</text>
</g>
<!-- AppModule -->
<g id="node2" class="node">
<title>AppModule</title>
<polygon fill="#8dd3c7" stroke="#000000" points="259.6571,-190 256.6571,-194 235.6571,-194 232.6571,-190 176.3429,-190 176.3429,-154 259.6571,-154 259.6571,-190"/>
<text text-anchor="middle" x="218" y="-167.8" font-family="Times,serif" font-size="14.00" fill="#000000">AppModule</text>
</g>
<!-- AppComponent&#45;&gt;AppModule -->
<g id="edge1" class="edge">
<title>AppComponent&#45;&gt;AppModule</title>
<path fill="none" stroke="#000000" d="M77,-122.2228C77,-142.3652 77,-172 77,-172 77,-172 166.0771,-172 166.0771,-172"/>
<polygon fill="#000000" stroke="#000000" points="166.0771,-175.5001 176.0771,-172 166.0771,-168.5001 166.0771,-175.5001"/>
</g>
<!-- AppComponent  -->
<g id="node5" class="node">
<title>AppComponent </title>
<polygon fill="#80b1d3" stroke="#000000" points="272.439,-258 163.561,-258 163.561,-222 272.439,-222 272.439,-258"/>
<text text-anchor="middle" x="218" y="-235.8" font-family="Times,serif" font-size="14.00" fill="#000000">AppComponent </text>
</g>
<!-- AppModule&#45;&gt;AppComponent  -->
<g id="edge4" class="edge">
<title>AppModule&#45;&gt;AppComponent </title>
<path fill="none" stroke="#000000" stroke-dasharray="1,5" d="M218,-190.2228C218,-190.2228 218,-211.7269 218,-211.7269"/>
<polygon fill="#000000" stroke="#000000" points="214.5001,-211.7269 218,-221.7269 221.5001,-211.727 214.5001,-211.7269"/>
</g>
<!-- AppRoutingModule -->
<g id="node3" class="node">
<title>AppRoutingModule</title>
<polygon fill="#8dd3c7" stroke="#000000" points="282.2744,-122 279.2744,-126 258.2744,-126 255.2744,-122 153.7256,-122 153.7256,-86 282.2744,-86 282.2744,-122"/>
<text text-anchor="middle" x="218" y="-99.8" font-family="Times,serif" font-size="14.00" fill="#000000">AppRoutingModule</text>
</g>
<!-- AppRoutingModule&#45;&gt;AppModule -->
<g id="edge2" class="edge">
<title>AppRoutingModule&#45;&gt;AppModule</title>
<path fill="none" stroke="#000000" d="M218,-122.2228C218,-122.2228 218,-143.7269 218,-143.7269"/>
<polygon fill="#000000" stroke="#000000" points="214.5001,-143.7269 218,-153.7269 221.5001,-143.727 214.5001,-143.7269"/>
</g>
<!-- CoreModule -->
<g id="node4" class="node">
<title>CoreModule</title>
<polygon fill="#8dd3c7" stroke="#000000" points="387.2619,-122 384.2619,-126 363.2619,-126 360.2619,-122 300.7381,-122 300.7381,-86 387.2619,-86 387.2619,-122"/>
<text text-anchor="middle" x="344" y="-99.8" font-family="Times,serif" font-size="14.00" fill="#000000">CoreModule</text>
</g>
<!-- CoreModule&#45;&gt;AppModule -->
<g id="edge3" class="edge">
<title>CoreModule&#45;&gt;AppModule</title>
<path fill="none" stroke="#000000" d="M344,-122.2228C344,-142.3652 344,-172 344,-172 344,-172 269.9562,-172 269.9562,-172"/>
<polygon fill="#000000" stroke="#000000" points="269.9562,-168.5001 259.9562,-172 269.9561,-175.5001 269.9562,-168.5001"/>
</g>
<!-- FooterComponent  -->
<g id="node14" class="node">
<title>FooterComponent </title>
<polygon fill="#fb8072" stroke="#000000" points="1384.8814,-190 1263.1186,-190 1263.1186,-154 1384.8814,-154 1384.8814,-190"/>
<text text-anchor="middle" x="1324" y="-167.8" font-family="Times,serif" font-size="14.00" fill="#000000">FooterComponent </text>
</g>
<!-- CoreModule&#45;&gt;FooterComponent  -->
<g id="edge12" class="edge">
<title>CoreModule&#45;&gt;FooterComponent </title>
<path fill="none" stroke="#000000" stroke-dasharray="5,2" d="M387.3739,-98C577.0334,-98 1324,-98 1324,-98 1324,-98 1324,-143.7079 1324,-143.7079"/>
<polygon fill="#000000" stroke="#000000" points="1320.5001,-143.7078 1324,-153.7079 1327.5001,-143.7079 1320.5001,-143.7078"/>
</g>
<!-- HeaderComponent  -->
<g id="node15" class="node">
<title>HeaderComponent </title>
<polygon fill="#fb8072" stroke="#000000" points="1245.7436,-190 1120.2564,-190 1120.2564,-154 1245.7436,-154 1245.7436,-190"/>
<text text-anchor="middle" x="1183" y="-167.8" font-family="Times,serif" font-size="14.00" fill="#000000">HeaderComponent </text>
</g>
<!-- CoreModule&#45;&gt;HeaderComponent  -->
<g id="edge13" class="edge">
<title>CoreModule&#45;&gt;HeaderComponent </title>
<path fill="none" stroke="#000000" stroke-dasharray="5,2" d="M387.3416,-101C559.1453,-101 1183,-101 1183,-101 1183,-101 1183,-143.7157 1183,-143.7157"/>
<polygon fill="#000000" stroke="#000000" points="1179.5001,-143.7157 1183,-153.7157 1186.5001,-143.7158 1179.5001,-143.7157"/>
</g>
<!-- IconsModule  -->
<g id="node16" class="node">
<title>IconsModule </title>
<polygon fill="#fb8072" stroke="#000000" points="1102.8703,-190 1009.1297,-190 1009.1297,-154 1102.8703,-154 1102.8703,-190"/>
<text text-anchor="middle" x="1056" y="-167.8" font-family="Times,serif" font-size="14.00" fill="#000000">IconsModule </text>
</g>
<!-- CoreModule&#45;&gt;IconsModule  -->
<g id="edge14" class="edge">
<title>CoreModule&#45;&gt;IconsModule </title>
<path fill="none" stroke="#000000" stroke-dasharray="5,2" d="M387.467,-104C542.0527,-104 1056,-104 1056,-104 1056,-104 1056,-143.7772 1056,-143.7772"/>
<polygon fill="#000000" stroke="#000000" points="1052.5001,-143.7772 1056,-153.7772 1059.5001,-143.7773 1052.5001,-143.7772"/>
</g>
<!-- LoginModule  -->
<g id="node17" class="node">
<title>LoginModule </title>
<polygon fill="#fb8072" stroke="#000000" points="991.4943,-190 894.5057,-190 894.5057,-154 991.4943,-154 991.4943,-190"/>
<text text-anchor="middle" x="943" y="-167.8" font-family="Times,serif" font-size="14.00" fill="#000000">LoginModule </text>
</g>
<!-- CoreModule&#45;&gt;LoginModule  -->
<g id="edge15" class="edge">
<title>CoreModule&#45;&gt;LoginModule </title>
<path fill="none" stroke="#000000" stroke-dasharray="5,2" d="M387.5611,-107C525.4013,-107 943,-107 943,-107 943,-107 943,-143.8939 943,-143.8939"/>
<polygon fill="#000000" stroke="#000000" points="939.5001,-143.8938 943,-153.8939 946.5001,-143.8939 939.5001,-143.8938"/>
</g>
<!-- NavComponent  -->
<g id="node18" class="node">
<title>NavComponent </title>
<polygon fill="#fb8072" stroke="#000000" points="877.1537,-190 768.8463,-190 768.8463,-154 877.1537,-154 877.1537,-190"/>
<text text-anchor="middle" x="823" y="-167.8" font-family="Times,serif" font-size="14.00" fill="#000000">NavComponent </text>
</g>
<!-- CoreModule&#45;&gt;NavComponent  -->
<g id="edge16" class="edge">
<title>CoreModule&#45;&gt;NavComponent </title>
<path fill="none" stroke="#000000" stroke-dasharray="5,2" d="M387.3529,-110C505.2631,-110 823,-110 823,-110 823,-110 823,-143.7333 823,-143.7333"/>
<polygon fill="#000000" stroke="#000000" points="819.5001,-143.7333 823,-153.7333 826.5001,-143.7333 819.5001,-143.7333"/>
</g>
<!-- TemplatesModule  -->
<g id="node19" class="node">
<title>TemplatesModule </title>
<polygon fill="#fb8072" stroke="#000000" points="750.8631,-190 629.1369,-190 629.1369,-154 750.8631,-154 750.8631,-190"/>
<text text-anchor="middle" x="690" y="-167.8" font-family="Times,serif" font-size="14.00" fill="#000000">TemplatesModule </text>
</g>
<!-- CoreModule&#45;&gt;TemplatesModule  -->
<g id="edge17" class="edge">
<title>CoreModule&#45;&gt;TemplatesModule </title>
<path fill="none" stroke="#000000" stroke-dasharray="5,2" d="M387.4708,-113C480.3993,-113 690,-113 690,-113 690,-113 690,-143.9775 690,-143.9775"/>
<polygon fill="#000000" stroke="#000000" points="686.5001,-143.9774 690,-153.9775 693.5001,-143.9775 686.5001,-143.9774"/>
</g>
<!-- TextModule  -->
<g id="node20" class="node">
<title>TextModule </title>
<polygon fill="#fb8072" stroke="#000000" points="611.2081,-190 522.7919,-190 522.7919,-154 611.2081,-154 611.2081,-190"/>
<text text-anchor="middle" x="567" y="-167.8" font-family="Times,serif" font-size="14.00" fill="#000000">TextModule </text>
</g>
<!-- CoreModule&#45;&gt;TextModule  -->
<g id="edge18" class="edge">
<title>CoreModule&#45;&gt;TextModule </title>
<path fill="none" stroke="#000000" stroke-dasharray="5,2" d="M387.526,-116C452.4231,-116 567,-116 567,-116 567,-116 567,-143.973 567,-143.973"/>
<polygon fill="#000000" stroke="#000000" points="563.5001,-143.973 567,-153.973 570.5001,-143.973 563.5001,-143.973"/>
</g>
<!-- UiModule  -->
<g id="node21" class="node">
<title>UiModule </title>
<polygon fill="#fb8072" stroke="#000000" points="504.547,-190 427.453,-190 427.453,-154 504.547,-154 504.547,-190"/>
<text text-anchor="middle" x="466" y="-167.8" font-family="Times,serif" font-size="14.00" fill="#000000">UiModule </text>
</g>
<!-- CoreModule&#45;&gt;UiModule  -->
<g id="edge19" class="edge">
<title>CoreModule&#45;&gt;UiModule </title>
<path fill="none" stroke="#000000" stroke-dasharray="5,2" d="M387.3561,-119C422.4225,-119 466,-119 466,-119 466,-119 466,-143.7604 466,-143.7604"/>
<polygon fill="#000000" stroke="#000000" points="462.5001,-143.7604 466,-153.7604 469.5001,-143.7604 462.5001,-143.7604"/>
</g>
<!-- PageAddClientComponent -->
<g id="node6" class="node">
<title>PageAddClientComponent</title>
<polygon fill="#ffffb3" stroke="#000000" points="2535.3738,-122 2368.6262,-122 2368.6262,-86 2535.3738,-86 2535.3738,-122"/>
<text text-anchor="middle" x="2452" y="-99.8" font-family="Times,serif" font-size="14.00" fill="#000000">PageAddClientComponent</text>
</g>
<!-- ClientsModule -->
<g id="node9" class="node">
<title>ClientsModule</title>
<polygon fill="#8dd3c7" stroke="#000000" points="2224.7176,-190 2221.7176,-194 2200.7176,-194 2197.7176,-190 2125.2824,-190 2125.2824,-154 2224.7176,-154 2224.7176,-190"/>
<text text-anchor="middle" x="2175" y="-167.8" font-family="Times,serif" font-size="14.00" fill="#000000">ClientsModule</text>
</g>
<!-- PageAddClientComponent&#45;&gt;ClientsModule -->
<g id="edge5" class="edge">
<title>PageAddClientComponent&#45;&gt;ClientsModule</title>
<path fill="none" stroke="#000000" d="M2452,-122.0225C2452,-139.3734 2452,-163 2452,-163 2452,-163 2234.842,-163 2234.842,-163"/>
<polygon fill="#000000" stroke="#000000" points="2234.842,-159.5001 2224.842,-163 2234.8419,-166.5001 2234.842,-159.5001"/>
</g>
<!-- PageEditClientComponent -->
<g id="node7" class="node">
<title>PageEditClientComponent</title>
<polygon fill="#ffffb3" stroke="#000000" points="2351.101,-122 2184.899,-122 2184.899,-86 2351.101,-86 2351.101,-122"/>
<text text-anchor="middle" x="2268" y="-99.8" font-family="Times,serif" font-size="14.00" fill="#000000">PageEditClientComponent</text>
</g>
<!-- PageEditClientComponent&#45;&gt;ClientsModule -->
<g id="edge6" class="edge">
<title>PageEditClientComponent&#45;&gt;ClientsModule</title>
<path fill="none" stroke="#000000" d="M2204.7791,-122.2228C2204.7791,-122.2228 2204.7791,-143.7269 2204.7791,-143.7269"/>
<polygon fill="#000000" stroke="#000000" points="2201.2792,-143.7269 2204.7791,-153.7269 2208.2792,-143.727 2201.2792,-143.7269"/>
</g>
<!-- PageListClientsComponent -->
<g id="node8" class="node">
<title>PageListClientsComponent</title>
<polygon fill="#ffffb3" stroke="#000000" points="2166.9902,-122 1997.0098,-122 1997.0098,-86 2166.9902,-86 2166.9902,-122"/>
<text text-anchor="middle" x="2082" y="-99.8" font-family="Times,serif" font-size="14.00" fill="#000000">PageListClientsComponent</text>
</g>
<!-- PageListClientsComponent&#45;&gt;ClientsModule -->
<g id="edge7" class="edge">
<title>PageListClientsComponent&#45;&gt;ClientsModule</title>
<path fill="none" stroke="#000000" d="M2146.1932,-122.2228C2146.1932,-122.2228 2146.1932,-143.7269 2146.1932,-143.7269"/>
<polygon fill="#000000" stroke="#000000" points="2142.6933,-143.7269 2146.1932,-153.7269 2149.6933,-143.727 2142.6933,-143.7269"/>
</g>
<!-- ClientsRoutingModule -->
<g id="node10" class="node">
<title>ClientsRoutingModule</title>
<polygon fill="#8dd3c7" stroke="#000000" points="1973.3356,-122 1970.3356,-126 1949.3356,-126 1946.3356,-122 1828.6644,-122 1828.6644,-86 1973.3356,-86 1973.3356,-122"/>
<text text-anchor="middle" x="1901" y="-99.8" font-family="Times,serif" font-size="14.00" fill="#000000">ClientsRoutingModule</text>
</g>
<!-- ClientsRoutingModule&#45;&gt;ClientsModule -->
<g id="edge8" class="edge">
<title>ClientsRoutingModule&#45;&gt;ClientsModule</title>
<path fill="none" stroke="#000000" d="M1901,-122.2228C1901,-142.3652 1901,-172 1901,-172 1901,-172 2115.3807,-172 2115.3807,-172"/>
<polygon fill="#000000" stroke="#000000" points="2115.3807,-175.5001 2125.3807,-172 2115.3806,-168.5001 2115.3807,-175.5001"/>
</g>
<!-- FooterComponent -->
<g id="node11" class="node">
<title>FooterComponent</title>
<polygon fill="#ffffb3" stroke="#000000" points="1788.8809,-190 1671.1191,-190 1671.1191,-154 1788.8809,-154 1788.8809,-190"/>
<text text-anchor="middle" x="1730" y="-167.8" font-family="Times,serif" font-size="14.00" fill="#000000">FooterComponent</text>
</g>
<!-- FooterComponent&#45;&gt;CoreModule -->
<g id="edge9" class="edge">
<title>FooterComponent&#45;&gt;CoreModule</title>
<path fill="none" stroke="#000000" d="M1730,-153.9902C1730,-129.5793 1730,-89 1730,-89 1730,-89 397.3839,-89 397.3839,-89"/>
<polygon fill="#000000" stroke="#000000" points="397.384,-85.5001 387.3839,-89 397.3839,-92.5001 397.384,-85.5001"/>
</g>
<!-- HeaderComponent -->
<g id="node12" class="node">
<title>HeaderComponent</title>
<polygon fill="#ffffb3" stroke="#000000" points="1652.7437,-190 1531.2563,-190 1531.2563,-154 1652.7437,-154 1652.7437,-190"/>
<text text-anchor="middle" x="1592" y="-167.8" font-family="Times,serif" font-size="14.00" fill="#000000">HeaderComponent</text>
</g>
<!-- HeaderComponent&#45;&gt;CoreModule -->
<g id="edge10" class="edge">
<title>HeaderComponent&#45;&gt;CoreModule</title>
<path fill="none" stroke="#000000" d="M1592,-153.8468C1592,-130.2434 1592,-92 1592,-92 1592,-92 397.3214,-92 397.3214,-92"/>
<polygon fill="#000000" stroke="#000000" points="397.3214,-88.5001 387.3214,-92 397.3214,-95.5001 397.3214,-88.5001"/>
</g>
<!-- NavComponent -->
<g id="node13" class="node">
<title>NavComponent</title>
<polygon fill="#ffffb3" stroke="#000000" points="1513.1542,-190 1408.8458,-190 1408.8458,-154 1513.1542,-154 1513.1542,-190"/>
<text text-anchor="middle" x="1461" y="-167.8" font-family="Times,serif" font-size="14.00" fill="#000000">NavComponent</text>
</g>
<!-- NavComponent&#45;&gt;CoreModule -->
<g id="edge11" class="edge">
<title>NavComponent&#45;&gt;CoreModule</title>
<path fill="none" stroke="#000000" d="M1461,-153.7521C1461,-130.9821 1461,-95 1461,-95 1461,-95 397.4449,-95 397.4449,-95"/>
<polygon fill="#000000" stroke="#000000" points="397.4449,-91.5001 387.4449,-95 397.4449,-98.5001 397.4449,-91.5001"/>
</g>
<!-- IconCloseComponent -->
<g id="node22" class="node">
<title>IconCloseComponent</title>
<polygon fill="#ffffb3" stroke="#000000" points="3178.094,-122 3039.906,-122 3039.906,-86 3178.094,-86 3178.094,-122"/>
<text text-anchor="middle" x="3109" y="-99.8" font-family="Times,serif" font-size="14.00" fill="#000000">IconCloseComponent</text>
</g>
<!-- IconsModule -->
<g id="node26" class="node">
<title>IconsModule</title>
<polygon fill="#8dd3c7" stroke="#000000" points="2843.8697,-190 2840.8697,-194 2819.8697,-194 2816.8697,-190 2754.1303,-190 2754.1303,-154 2843.8697,-154 2843.8697,-190"/>
<text text-anchor="middle" x="2799" y="-167.8" font-family="Times,serif" font-size="14.00" fill="#000000">IconsModule</text>
</g>
<!-- IconCloseComponent&#45;&gt;IconsModule -->
<g id="edge20" class="edge">
<title>IconCloseComponent&#45;&gt;IconsModule</title>
<path fill="none" stroke="#000000" d="M3132.7657,-122.1061C3132.7657,-141.3391 3132.7657,-169 3132.7657,-169 3132.7657,-169 2854.0131,-169 2854.0131,-169"/>
<polygon fill="#000000" stroke="#000000" points="2854.0132,-165.5001 2844.0131,-169 2854.0131,-172.5001 2854.0132,-165.5001"/>
</g>
<!-- IconDeleteComponent -->
<g id="node23" class="node">
<title>IconDeleteComponent</title>
<polygon fill="#ffffb3" stroke="#000000" points="3022.2394,-122 2879.7606,-122 2879.7606,-86 3022.2394,-86 3022.2394,-122"/>
<text text-anchor="middle" x="2951" y="-99.8" font-family="Times,serif" font-size="14.00" fill="#000000">IconDeleteComponent</text>
</g>
<!-- IconDeleteComponent&#45;&gt;IconsModule -->
<g id="edge21" class="edge">
<title>IconDeleteComponent&#45;&gt;IconsModule</title>
<path fill="none" stroke="#000000" d="M2927.2101,-122.0336C2927.2101,-139.0597 2927.2101,-162 2927.2101,-162 2927.2101,-162 2854.2021,-162 2854.2021,-162"/>
<polygon fill="#000000" stroke="#000000" points="2854.2021,-158.5001 2844.2021,-162 2854.2021,-165.5001 2854.2021,-158.5001"/>
</g>
<!-- IconEditComponent -->
<g id="node24" class="node">
<title>IconEditComponent</title>
<polygon fill="#ffffb3" stroke="#000000" points="2861.5422,-122 2732.4578,-122 2732.4578,-86 2861.5422,-86 2861.5422,-122"/>
<text text-anchor="middle" x="2797" y="-99.8" font-family="Times,serif" font-size="14.00" fill="#000000">IconEditComponent</text>
</g>
<!-- IconEditComponent&#45;&gt;IconsModule -->
<g id="edge22" class="edge">
<title>IconEditComponent&#45;&gt;IconsModule</title>
<path fill="none" stroke="#000000" d="M2799,-122.2228C2799,-122.2228 2799,-143.7269 2799,-143.7269"/>
<polygon fill="#000000" stroke="#000000" points="2795.5001,-143.7269 2799,-153.7269 2802.5001,-143.727 2795.5001,-143.7269"/>
</g>
<!-- IconNavComponent -->
<g id="node25" class="node">
<title>IconNavComponent</title>
<polygon fill="#ffffb3" stroke="#000000" points="2713.5297,-122 2584.4703,-122 2584.4703,-86 2713.5297,-86 2713.5297,-122"/>
<text text-anchor="middle" x="2649" y="-99.8" font-family="Times,serif" font-size="14.00" fill="#000000">IconNavComponent</text>
</g>
<!-- IconNavComponent&#45;&gt;IconsModule -->
<g id="edge23" class="edge">
<title>IconNavComponent&#45;&gt;IconsModule</title>
<path fill="none" stroke="#000000" d="M2667.0881,-122.2228C2667.0881,-142.3652 2667.0881,-172 2667.0881,-172 2667.0881,-172 2743.9724,-172 2743.9724,-172"/>
<polygon fill="#000000" stroke="#000000" points="2743.9724,-175.5001 2753.9724,-172 2743.9723,-168.5001 2743.9724,-175.5001"/>
</g>
<!-- IconCloseComponent  -->
<g id="node27" class="node">
<title>IconCloseComponent </title>
<polygon fill="#fb8072" stroke="#000000" points="3183.5946,-258 3042.4054,-258 3042.4054,-222 3183.5946,-222 3183.5946,-258"/>
<text text-anchor="middle" x="3113" y="-235.8" font-family="Times,serif" font-size="14.00" fill="#000000">IconCloseComponent </text>
</g>
<!-- IconsModule&#45;&gt;IconCloseComponent  -->
<g id="edge24" class="edge">
<title>IconsModule&#45;&gt;IconCloseComponent </title>
<path fill="none" stroke="#000000" stroke-dasharray="5,2" d="M2844.0757,-176C2925.2119,-176 3087.4843,-176 3087.4843,-176 3087.4843,-176 3087.4843,-211.8314 3087.4843,-211.8314"/>
<polygon fill="#000000" stroke="#000000" points="3083.9844,-211.8313 3087.4843,-221.8314 3090.9844,-211.8314 3083.9844,-211.8313"/>
</g>
<!-- IconDeleteComponent  -->
<g id="node28" class="node">
<title>IconDeleteComponent </title>
<polygon fill="#fb8072" stroke="#000000" points="3024.2394,-258 2877.7606,-258 2877.7606,-222 3024.2394,-222 3024.2394,-258"/>
<text text-anchor="middle" x="2951" y="-235.8" font-family="Times,serif" font-size="14.00" fill="#000000">IconDeleteComponent </text>
</g>
<!-- IconsModule&#45;&gt;IconDeleteComponent  -->
<g id="edge25" class="edge">
<title>IconsModule&#45;&gt;IconDeleteComponent </title>
<path fill="none" stroke="#000000" stroke-dasharray="5,2" d="M2844.2703,-183C2896.3555,-183 2974.7899,-183 2974.7899,-183 2974.7899,-183 2974.7899,-211.9648 2974.7899,-211.9648"/>
<polygon fill="#000000" stroke="#000000" points="2971.29,-211.9648 2974.7899,-221.9648 2978.29,-211.9649 2971.29,-211.9648"/>
</g>
<!-- IconEditComponent  -->
<g id="node29" class="node">
<title>IconEditComponent </title>
<polygon fill="#fb8072" stroke="#000000" points="2859.5414,-258 2726.4586,-258 2726.4586,-222 2859.5414,-222 2859.5414,-258"/>
<text text-anchor="middle" x="2793" y="-235.8" font-family="Times,serif" font-size="14.00" fill="#000000">IconEditComponent </text>
</g>
<!-- IconsModule&#45;&gt;IconEditComponent  -->
<g id="edge26" class="edge">
<title>IconsModule&#45;&gt;IconEditComponent </title>
<path fill="none" stroke="#000000" stroke-dasharray="5,2" d="M2799,-190.2228C2799,-190.2228 2799,-211.7269 2799,-211.7269"/>
<polygon fill="#000000" stroke="#000000" points="2795.5001,-211.7269 2799,-221.7269 2802.5001,-211.727 2795.5001,-211.7269"/>
</g>
<!-- IconNavComponent  -->
<g id="node30" class="node">
<title>IconNavComponent </title>
<polygon fill="#fb8072" stroke="#000000" points="2708.5288,-258 2575.4712,-258 2575.4712,-222 2708.5288,-222 2708.5288,-258"/>
<text text-anchor="middle" x="2642" y="-235.8" font-family="Times,serif" font-size="14.00" fill="#000000">IconNavComponent </text>
</g>
<!-- IconsModule&#45;&gt;IconNavComponent  -->
<g id="edge27" class="edge">
<title>IconsModule&#45;&gt;IconNavComponent </title>
<path fill="none" stroke="#000000" stroke-dasharray="5,2" d="M2753.9099,-181C2702.5506,-181 2625.6619,-181 2625.6619,-181 2625.6619,-181 2625.6619,-211.9775 2625.6619,-211.9775"/>
<polygon fill="#000000" stroke="#000000" points="2622.162,-211.9774 2625.6619,-221.9775 2629.162,-211.9775 2622.162,-211.9774"/>
</g>
<!-- LoginComponent -->
<g id="node31" class="node">
<title>LoginComponent</title>
<polygon fill="#ffffb3" stroke="#000000" points="3500.2758,-122 3385.7242,-122 3385.7242,-86 3500.2758,-86 3500.2758,-122"/>
<text text-anchor="middle" x="3443" y="-99.8" font-family="Times,serif" font-size="14.00" fill="#000000">LoginComponent</text>
</g>
<!-- LoginModule -->
<g id="node32" class="node">
<title>LoginModule</title>
<polygon fill="#8dd3c7" stroke="#000000" points="3414.493,-190 3411.493,-194 3390.493,-194 3387.493,-190 3321.507,-190 3321.507,-154 3414.493,-154 3414.493,-190"/>
<text text-anchor="middle" x="3368" y="-167.8" font-family="Times,serif" font-size="14.00" fill="#000000">LoginModule</text>
</g>
<!-- LoginComponent&#45;&gt;LoginModule -->
<g id="edge28" class="edge">
<title>LoginComponent&#45;&gt;LoginModule</title>
<path fill="none" stroke="#000000" d="M3400.0544,-122.2228C3400.0544,-122.2228 3400.0544,-143.7269 3400.0544,-143.7269"/>
<polygon fill="#000000" stroke="#000000" points="3396.5544,-143.7269 3400.0544,-153.7269 3403.5544,-143.727 3396.5544,-143.7269"/>
</g>
<!-- LoginRoutingModule -->
<g id="node33" class="node">
<title>LoginRoutingModule</title>
<polygon fill="#8dd3c7" stroke="#000000" points="3362.1108,-122 3359.1108,-126 3338.1108,-126 3335.1108,-122 3223.8892,-122 3223.8892,-86 3362.1108,-86 3362.1108,-122"/>
<text text-anchor="middle" x="3293" y="-99.8" font-family="Times,serif" font-size="14.00" fill="#000000">LoginRoutingModule</text>
</g>
<!-- LoginRoutingModule&#45;&gt;LoginModule -->
<g id="edge29" class="edge">
<title>LoginRoutingModule&#45;&gt;LoginModule</title>
<path fill="none" stroke="#000000" d="M3341.7795,-122.2228C3341.7795,-122.2228 3341.7795,-143.7269 3341.7795,-143.7269"/>
<polygon fill="#000000" stroke="#000000" points="3338.2795,-143.7269 3341.7795,-153.7269 3345.2795,-143.727 3338.2795,-143.7269"/>
</g>
<!-- PageAddOrderComponent -->
<g id="node34" class="node">
<title>PageAddOrderComponent</title>
<polygon fill="#ffffb3" stroke="#000000" points="4239.7935,-122 4074.2065,-122 4074.2065,-86 4239.7935,-86 4239.7935,-122"/>
<text text-anchor="middle" x="4157" y="-99.8" font-family="Times,serif" font-size="14.00" fill="#000000">PageAddOrderComponent</text>
</g>
<!-- OrdersModule -->
<g id="node37" class="node">
<title>OrdersModule</title>
<polygon fill="#8dd3c7" stroke="#000000" points="3930.6375,-190 3927.6375,-194 3906.6375,-194 3903.6375,-190 3833.3625,-190 3833.3625,-154 3930.6375,-154 3930.6375,-190"/>
<text text-anchor="middle" x="3882" y="-167.8" font-family="Times,serif" font-size="14.00" fill="#000000">OrdersModule</text>
</g>
<!-- PageAddOrderComponent&#45;&gt;OrdersModule -->
<g id="edge30" class="edge">
<title>PageAddOrderComponent&#45;&gt;OrdersModule</title>
<path fill="none" stroke="#000000" d="M4157,-122.2228C4157,-142.3652 4157,-172 4157,-172 4157,-172 3940.8476,-172 3940.8476,-172"/>
<polygon fill="#000000" stroke="#000000" points="3940.8476,-168.5001 3930.8476,-172 3940.8476,-175.5001 3940.8476,-168.5001"/>
</g>
<!-- PageEditOrderComponent -->
<g id="node35" class="node">
<title>PageEditOrderComponent</title>
<polygon fill="#ffffb3" stroke="#000000" points="4056.0211,-122 3891.9789,-122 3891.9789,-86 4056.0211,-86 4056.0211,-122"/>
<text text-anchor="middle" x="3974" y="-99.8" font-family="Times,serif" font-size="14.00" fill="#000000">PageEditOrderComponent</text>
</g>
<!-- PageEditOrderComponent&#45;&gt;OrdersModule -->
<g id="edge31" class="edge">
<title>PageEditOrderComponent&#45;&gt;OrdersModule</title>
<path fill="none" stroke="#000000" d="M3911.2791,-122.2228C3911.2791,-122.2228 3911.2791,-143.7269 3911.2791,-143.7269"/>
<polygon fill="#000000" stroke="#000000" points="3907.7792,-143.7269 3911.2791,-153.7269 3914.7792,-143.727 3907.7792,-143.7269"/>
</g>
<!-- PageListOrdersComponent -->
<g id="node36" class="node">
<title>PageListOrdersComponent</title>
<polygon fill="#ffffb3" stroke="#000000" points="3874.4101,-122 3705.5899,-122 3705.5899,-86 3874.4101,-86 3874.4101,-122"/>
<text text-anchor="middle" x="3790" y="-99.8" font-family="Times,serif" font-size="14.00" fill="#000000">PageListOrdersComponent</text>
</g>
<!-- PageListOrdersComponent&#45;&gt;OrdersModule -->
<g id="edge32" class="edge">
<title>PageListOrdersComponent&#45;&gt;OrdersModule</title>
<path fill="none" stroke="#000000" d="M3853.6932,-122.2228C3853.6932,-122.2228 3853.6932,-143.7269 3853.6932,-143.7269"/>
<polygon fill="#000000" stroke="#000000" points="3850.1933,-143.7269 3853.6932,-153.7269 3857.1933,-143.727 3850.1933,-143.7269"/>
</g>
<!-- OrdersRoutingModule -->
<g id="node38" class="node">
<title>OrdersRoutingModule</title>
<polygon fill="#8dd3c7" stroke="#000000" points="3682.2548,-122 3679.2548,-126 3658.2548,-126 3655.2548,-122 3539.7452,-122 3539.7452,-86 3682.2548,-86 3682.2548,-122"/>
<text text-anchor="middle" x="3611" y="-99.8" font-family="Times,serif" font-size="14.00" fill="#000000">OrdersRoutingModule</text>
</g>
<!-- OrdersRoutingModule&#45;&gt;OrdersModule -->
<g id="edge33" class="edge">
<title>OrdersRoutingModule&#45;&gt;OrdersModule</title>
<path fill="none" stroke="#000000" d="M3611,-122.2228C3611,-142.3652 3611,-172 3611,-172 3611,-172 3823.2376,-172 3823.2376,-172"/>
<polygon fill="#000000" stroke="#000000" points="3823.2377,-175.5001 3833.2376,-172 3823.2376,-168.5001 3823.2377,-175.5001"/>
</g>
<!-- TemplateContainerComponent -->
<g id="node39" class="node">
<title>TemplateContainerComponent</title>
<polygon fill="#ffffb3" stroke="#000000" points="4682.9086,-122 4493.0914,-122 4493.0914,-86 4682.9086,-86 4682.9086,-122"/>
<text text-anchor="middle" x="4588" y="-99.8" font-family="Times,serif" font-size="14.00" fill="#000000">TemplateContainerComponent</text>
</g>
<!-- TemplatesModule -->
<g id="node41" class="node">
<title>TemplatesModule</title>
<polygon fill="#8dd3c7" stroke="#000000" points="4438.8627,-190 4435.8627,-194 4414.8627,-194 4411.8627,-190 4321.1373,-190 4321.1373,-154 4438.8627,-154 4438.8627,-190"/>
<text text-anchor="middle" x="4380" y="-167.8" font-family="Times,serif" font-size="14.00" fill="#000000">TemplatesModule</text>
</g>
<!-- TemplateContainerComponent&#45;&gt;TemplatesModule -->
<g id="edge34" class="edge">
<title>TemplateContainerComponent&#45;&gt;TemplatesModule</title>
<path fill="none" stroke="#000000" d="M4619.6514,-122.2667C4619.6514,-140.5552 4619.6514,-166 4619.6514,-166 4619.6514,-166 4448.9323,-166 4448.9323,-166"/>
<polygon fill="#000000" stroke="#000000" points="4448.9323,-162.5001 4438.9323,-166 4448.9322,-169.5001 4448.9323,-162.5001"/>
</g>
<!-- TemplateFullWidthComponent -->
<g id="node40" class="node">
<title>TemplateFullWidthComponent</title>
<polygon fill="#ffffb3" stroke="#000000" points="4474.7603,-122 4283.2397,-122 4283.2397,-86 4474.7603,-86 4474.7603,-122"/>
<text text-anchor="middle" x="4379" y="-99.8" font-family="Times,serif" font-size="14.00" fill="#000000">TemplateFullWidthComponent</text>
</g>
<!-- TemplateFullWidthComponent&#45;&gt;TemplatesModule -->
<g id="edge35" class="edge">
<title>TemplateFullWidthComponent&#45;&gt;TemplatesModule</title>
<path fill="none" stroke="#000000" d="M4380,-122.2228C4380,-122.2228 4380,-143.7269 4380,-143.7269"/>
<polygon fill="#000000" stroke="#000000" points="4376.5001,-143.7269 4380,-153.7269 4383.5001,-143.727 4376.5001,-143.7269"/>
</g>
<!-- TemplateContainerComponent  -->
<g id="node42" class="node">
<title>TemplateContainerComponent </title>
<polygon fill="#fb8072" stroke="#000000" points="4686.4082,-258 4493.5918,-258 4493.5918,-222 4686.4082,-222 4686.4082,-258"/>
<text text-anchor="middle" x="4590" y="-235.8" font-family="Times,serif" font-size="14.00" fill="#000000">TemplateContainerComponent </text>
</g>
<!-- TemplatesModule&#45;&gt;TemplateContainerComponent  -->
<g id="edge36" class="edge">
<title>TemplatesModule&#45;&gt;TemplateContainerComponent </title>
<path fill="none" stroke="#000000" stroke-dasharray="5,2" d="M4439.2961,-178C4490.5998,-178 4556.5986,-178 4556.5986,-178 4556.5986,-178 4556.5986,-211.7333 4556.5986,-211.7333"/>
<polygon fill="#000000" stroke="#000000" points="4553.0987,-211.7333 4556.5986,-221.7333 4560.0987,-211.7333 4553.0987,-211.7333"/>
</g>
<!-- TemplateFullWidthComponent  -->
<g id="node43" class="node">
<title>TemplateFullWidthComponent </title>
<polygon fill="#fb8072" stroke="#000000" points="4475.7604,-258 4280.2396,-258 4280.2396,-222 4475.7604,-222 4475.7604,-258"/>
<text text-anchor="middle" x="4378" y="-235.8" font-family="Times,serif" font-size="14.00" fill="#000000">TemplateFullWidthComponent </text>
</g>
<!-- TemplatesModule&#45;&gt;TemplateFullWidthComponent  -->
<g id="edge37" class="edge">
<title>TemplatesModule&#45;&gt;TemplateFullWidthComponent </title>
<path fill="none" stroke="#000000" stroke-dasharray="5,2" d="M4380,-190.2228C4380,-190.2228 4380,-211.7269 4380,-211.7269"/>
<polygon fill="#000000" stroke="#000000" points="4376.5001,-211.7269 4380,-221.7269 4383.5001,-211.727 4376.5001,-211.7269"/>
</g>
<!-- Ui2Component -->
<g id="node44" class="node">
<title>Ui2Component</title>
<polygon fill="#ffffb3" stroke="#000000" points="4945.3301,-122 4842.6699,-122 4842.6699,-86 4945.3301,-86 4945.3301,-122"/>
<text text-anchor="middle" x="4894" y="-99.8" font-family="Times,serif" font-size="14.00" fill="#000000">Ui2Component</text>
</g>
<!-- UiModule -->
<g id="node46" class="node">
<title>UiModule</title>
<polygon fill="#8dd3c7" stroke="#000000" points="4813.5484,-190 4810.5484,-194 4789.5484,-194 4786.5484,-190 4740.4516,-190 4740.4516,-154 4813.5484,-154 4813.5484,-190"/>
<text text-anchor="middle" x="4777" y="-167.8" font-family="Times,serif" font-size="14.00" fill="#000000">UiModule</text>
</g>
<!-- Ui2Component&#45;&gt;UiModule -->
<g id="edge38" class="edge">
<title>Ui2Component&#45;&gt;UiModule</title>
<path fill="none" stroke="#000000" d="M4911.0549,-122.2667C4911.0549,-140.5552 4911.0549,-166 4911.0549,-166 4911.0549,-166 4823.6311,-166 4823.6311,-166"/>
<polygon fill="#000000" stroke="#000000" points="4823.6311,-162.5001 4813.6311,-166 4823.6311,-169.5001 4823.6311,-162.5001"/>
</g>
<!-- UiComponent -->
<g id="node45" class="node">
<title>UiComponent</title>
<polygon fill="#ffffb3" stroke="#000000" points="4824.8302,-122 4729.1698,-122 4729.1698,-86 4824.8302,-86 4824.8302,-122"/>
<text text-anchor="middle" x="4777" y="-99.8" font-family="Times,serif" font-size="14.00" fill="#000000">UiComponent</text>
</g>
<!-- UiComponent&#45;&gt;UiModule -->
<g id="edge39" class="edge">
<title>UiComponent&#45;&gt;UiModule</title>
<path fill="none" stroke="#000000" d="M4777,-122.2228C4777,-122.2228 4777,-143.7269 4777,-143.7269"/>
<polygon fill="#000000" stroke="#000000" points="4773.5001,-143.7269 4777,-153.7269 4780.5001,-143.727 4773.5001,-143.7269"/>
</g>
<!-- Ui2Component  -->
<g id="node47" class="node">
<title>Ui2Component </title>
<polygon fill="#fb8072" stroke="#000000" points="4947.8297,-258 4842.1703,-258 4842.1703,-222 4947.8297,-222 4947.8297,-258"/>
<text text-anchor="middle" x="4895" y="-235.8" font-family="Times,serif" font-size="14.00" fill="#000000">Ui2Component </text>
</g>
<!-- UiModule&#45;&gt;Ui2Component  -->
<g id="edge40" class="edge">
<title>UiModule&#45;&gt;Ui2Component </title>
<path fill="none" stroke="#000000" stroke-dasharray="5,2" d="M4813.6483,-178C4842.1726,-178 4876.9451,-178 4876.9451,-178 4876.9451,-178 4876.9451,-211.7333 4876.9451,-211.7333"/>
<polygon fill="#000000" stroke="#000000" points="4873.4452,-211.7333 4876.9451,-221.7333 4880.4452,-211.7333 4873.4452,-211.7333"/>
</g>
<!-- UiComponent  -->
<g id="node48" class="node">
<title>UiComponent </title>
<polygon fill="#fb8072" stroke="#000000" points="4824.3297,-258 4725.6703,-258 4725.6703,-222 4824.3297,-222 4824.3297,-258"/>
<text text-anchor="middle" x="4775" y="-235.8" font-family="Times,serif" font-size="14.00" fill="#000000">UiComponent </text>
</g>
<!-- UiModule&#45;&gt;UiComponent  -->
<g id="edge41" class="edge">
<title>UiModule&#45;&gt;UiComponent </title>
<path fill="none" stroke="#000000" stroke-dasharray="5,2" d="M4777,-190.2228C4777,-190.2228 4777,-211.7269 4777,-211.7269"/>
<polygon fill="#000000" stroke="#000000" points="4773.5001,-211.7269 4777,-221.7269 4780.5001,-211.727 4773.5001,-211.7269"/>
</g>
</g>
</svg>
